<?xml version="1.0" encoding="utf-8"?>
<!-- Generator: Adobe Illustrator 27.5.0, SVG Export Plug-In . SVG Version: 6.00 Build 0)  -->
<svg version="1.1" id="Layer_1" xmlns="http://www.w3.org/2000/svg" xmlns:xlink="http://www.w3.org/1999/xlink" x="0px" y="0px"
	 viewBox="0 0 4000 4000" style="enable-background:new 0 0 4000 4000;" xml:space="preserve">
<g>

	<path style="fill-rule:evenodd;clip-rule:evenodd;fill:#0276DB;" d="M1766.517,1034.48
		c-182.07-83.536-368.405-205.643-606.165-68.55c-237.766,137.087-381.265,484.086-265.597,985.313
		c24.32,105.41,55.86,222.003,93.273,339.235l33.832,101.395c141.057,404.722,348.268,780.908,566.876,690.341
		c205.187-85.007,217.872-174.015,411.265-223.125c193.383,49.11,206.065,138.118,411.255,223.125
		c299.876,124.237,578.32-629.75,693.978-1130.971c34.313-148.692,45.827-283.805,38.83-403.9c0,0-5.052-91.393-20.042-151.465
		c-43.578-204.863-148.587-351.661-284.376-429.948c-237.77-137.093-424.105-14.987-606.175,68.55
		C2087.489,1101.468,1912.511,1101.468,1766.517,1034.48"/>
	<path style="fill-rule:evenodd;clip-rule:evenodd;fill:#FFFFFF;" d="M2532.944,2267.304c70.115,0,126.955,56.84,126.955,126.95
		c0,70.115-56.84,126.955-126.955,126.955s-126.95-56.84-126.95-126.955C2405.994,2324.144,2462.829,2267.304,2532.944,2267.304
		 M1241.976,1465.403h0.005l167.9-50.395c48.95-14.688,100.555,6.538,122.995,52.45l2.783,5.694
		c21.231,43.427,68.362,65.711,115.398,54.562l779.296-184.743c30.188-7.157,59.021-1.308,84.036,17.047
		c25.017,18.353,39.247,44.097,41.485,75.046l30.1,416.631c3.467,48.062-25.848,90.897-71.905,105.062l-765.061,235.247
		c-10.843,5.173-19.338,14.603-23.202,26.367c-5.25,15.988-1.068,33.567,10.813,45.482c10.153,10.172,24.45,14.735,38.372,12.6
		l7.078-1.682h0.003l783.015-186.152c20.763-4.342,42.255,2.845,56.238,18.795c13.98,15.953,18.285,38.205,11.255,58.218
		c-5.698,16.238-18.142,28.96-33.79,35.168c-3.69,1.28-7.488,2.367-11.39,3.237l-842.731,187.582
		c-29.503,6.568-57.433,0.827-81.958-16.842c-24.525-17.67-38.812-42.355-41.915-72.42l-11.897-115.097
		c-2.833-27.473,5.065-53.531,21.005-73.738c25.053-31.767,29.287-72.538,11.287-108.775l-203.82-410.24
		c-16.96-34.143-48.76-54.873-86.848-56.622c-18.79-0.865-72.587,27.945-106.352,16.818c-21.969-7.232-39.17-44.527-30.708-65.99
		C1219.233,1474.086,1228.388,1469.758,1241.976,1465.403z M1923.589,2394.254c70.11,0,126.95,56.84,126.95,126.955
		c0,70.11-56.84,126.948-126.95,126.948c-70.115,0-126.953-56.838-126.953-126.948
		C1796.636,2451.094,1853.474,2394.254,1923.589,2394.254z"/>
</g>
</svg>
